<svg width="1549" height="1714" viewBox="0 0 1549 1714" fill="none" xmlns="http://www.w3.org/2000/svg">
<path d="M1311.65 52.9914C1346.55 -0.973751 1418.9 -15.867 1472.28 19.9279L1498.04 37.2077C1550.79 72.5834 1564.87 144.022 1529.5 196.771L546.577 1662.41C498.031 1734.79 389.746 1728.97 349.24 1651.8L317.221 1590.79L1311.65 52.9914Z" fill="#539108"/>
<path d="M13.3543 1011.8C-6.55743 973.861 -5.20794 926.604 24.2275 895.467C59.0041 858.68 94.4448 839.787 143.812 832.25C186.504 825.732 226.068 852.626 245.232 891.329L592.866 1593.41L546.582 1662.42C498.037 1734.82 389.745 1728.99 349.241 1651.82L13.3543 1011.8Z" fill="#539108"/>
</svg>
