<svg width="560" height="370" viewBox="0 0 560 370" fill="none" xmlns="http://www.w3.org/2000/svg">
<g clip-path="url(#clip0_1_4)">
<rect width="560" height="370" rx="20" fill="#CECCCC"/>
<rect x="93" y="32" width="351" height="298" fill="#CECCCC"/>
<text fill="black" xml:space="preserve" style="white-space: pre" font-family="Inter" font-size="6" font-weight="300" letter-spacing="0.04em"><tspan x="133.864" y="120.136">08:46am</tspan></text>
<rect x="134.364" y="62.5862" width="267.724" height="46.4976" rx="5.5" fill="#6A798A" stroke="#6A798A"/>
<text fill="#CECCCC" xml:space="preserve" style="white-space: pre" font-family="Inter" font-size="7" font-weight="600" letter-spacing="0.04em"><tspan x="144.109" y="73.6141">Hey guys! I read Psalm 24 this morning and am having some trouble </tspan><tspan x="144.109" y="83.6141">understanding verse 7:</tspan></text>
<text fill="#93BBEC" xml:space="preserve" style="white-space: pre" font-family="Inter" font-size="7" font-weight="bold" letter-spacing="0.04em"><tspan x="232.337" y="83.6141">Psalm 24:7</tspan></text>
<text fill="#CECCCC" xml:space="preserve" style="white-space: pre" font-family="Inter" font-size="7" font-weight="600" letter-spacing="0.04em"><tspan x="144.109" y="101.612">What does David mean when he says &#34;Lift up your heads, O gates!&#34;?</tspan></text>
<text fill="#56667A" xml:space="preserve" style="white-space: pre" font-family="Inter" font-size="7" font-weight="bold" letter-spacing="0.04em"><tspan x="133.864" y="52.7617">John Doe</tspan></text>
<circle cx="123.713" cy="50.2162" r="7.5" fill="#452117"/>
<text fill="#CECCCC" xml:space="preserve" style="white-space: pre" font-family="Inter" font-size="7" font-weight="bold" letter-spacing="0.08em"><tspan x="118.891" y="52.7617">JD</tspan></text>
<g clip-path="url(#clip1_1_4)">
<path d="M400.832 60.7716C401.341 60.7992 401.86 61.0275 402.271 61.4499L402.57 61.7561L402.584 61.7703L402.598 61.7561L402.896 61.4499C403.718 60.6051 404.973 60.5387 405.709 61.2947C406.446 62.0508 406.382 63.3393 405.559 64.184L405.262 64.489L402.584 67.2374L399.905 64.4891L399.608 64.184C398.785 63.3399 398.721 62.0508 399.458 61.2947C399.826 60.9165 400.323 60.7441 400.832 60.7716Z" fill="#CECCCC"/>
<path d="M400.832 60.7716L400.833 60.7529M400.832 60.7716C401.341 60.7992 401.86 61.0275 402.271 61.4499L402.57 61.7561L402.584 61.7703L402.598 61.7561L402.896 61.4499C403.718 60.6051 404.973 60.5387 405.709 61.2947C406.446 62.0508 406.382 63.3393 405.559 64.184L405.262 64.489L402.584 67.2374L399.905 64.4891L399.608 64.184C398.785 63.3399 398.721 62.0508 399.458 61.2947C399.826 60.9165 400.323 60.7441 400.832 60.7716Z" stroke="#452117"/>
</g>
<line x1="133.864" y1="132.727" x2="402.588" y2="132.727" stroke="#1B0D09" stroke-opacity="0.2"/>
<rect x="134.364" y="161.37" width="267.724" height="77.4322" rx="5.5" fill="#9BA5B0" stroke="#6A798A"/>
<text fill="black" xml:space="preserve" style="white-space: pre" font-family="Inter" font-size="6" font-weight="300" letter-spacing="0.04em"><tspan x="133.864" y="250.307">09:07am</tspan></text>
<text fill="#0055BE" xml:space="preserve" style="white-space: pre" font-family="Inter" font-size="7" font-weight="600" letter-spacing="0.04em"><tspan x="274.245" y="230.783">2 Samuel 6:1-6:23</tspan></text>
<text fill="#1B0D09" xml:space="preserve" style="white-space: pre" font-family="Inter" font-size="7" font-weight="500" letter-spacing="0.04em"><tspan x="144.109" y="210.783">It is thought that this verse may be connected to the time when </tspan><tspan x="144.109" y="220.783">David brought the ark of the covenant (which represented God&#39;s </tspan><tspan x="144.109" y="230.783">presence) back from Obed-edom:</tspan></text>
<text fill="#1B0D09" xml:space="preserve" style="white-space: pre" font-family="Inter" font-size="7" font-weight="500" letter-spacing="0.04em"><tspan x="144.109" y="172.396">Hey John! David is referring to the gates of Jerusalem in that verse. </tspan><tspan x="144.109" y="182.396">He is basically calling on the city to welcome the &#34;King of glory&#34; in a </tspan><tspan x="144.109" y="192.396">poetic way.</tspan></text>
<circle cx="123.147" cy="149" r="7.5" fill="#452117"/>
<text fill="#CECCCC" xml:space="preserve" style="white-space: pre" font-family="Inter" font-size="7" font-weight="bold" letter-spacing="0.08em"><tspan x="117.35" y="151.545">BM</tspan></text>
<text fill="#56667A" xml:space="preserve" style="white-space: pre" font-family="Inter" font-size="7" font-weight="bold" letter-spacing="0.04em"><tspan x="133.864" y="151.545">Bob Miller</tspan></text>
<path d="M400.832 159.772C401.341 159.799 401.86 160.027 402.271 160.45L402.57 160.756L402.584 160.77L402.598 160.756L402.896 160.45C403.718 159.605 404.973 159.539 405.709 160.295C406.446 161.051 406.382 162.339 405.559 163.184L405.262 163.489L402.584 166.237L399.905 163.489L399.608 163.184C398.785 162.34 398.721 161.051 399.458 160.295C399.826 159.917 400.323 159.744 400.832 159.772Z" fill="#E42525"/>
<path d="M400.832 159.772L400.833 159.753M400.832 159.772C401.341 159.799 401.86 160.027 402.271 160.45L402.57 160.756L402.584 160.77L402.598 160.756L402.896 160.45C403.718 159.605 404.973 159.539 405.709 160.295C406.446 161.051 406.382 162.339 405.559 163.184L405.262 163.489L402.584 166.237L399.905 163.489L399.608 163.184C398.785 162.34 398.721 161.051 399.458 160.295C399.826 159.917 400.323 159.744 400.832 159.772Z" stroke="#E42525"/>
<text fill="black" xml:space="preserve" style="white-space: pre" font-family="Inter" font-size="9" font-weight="300" letter-spacing="0em"><tspan x="408.489" y="166.268">3</tspan></text>
<line x1="132.873" y1="268.446" x2="402.588" y2="268.446" stroke="#1B0D09" stroke-opacity="0.2"/>
<text fill="black" xml:space="preserve" style="white-space: pre" font-family="Inter" font-size="6" font-weight="300" letter-spacing="0.04em"><tspan x="132.873" y="318.925">08:46am</tspan></text>
<rect x="133.373" y="291.405" width="166.099" height="18.2896" rx="5.5" fill="#6A798A" stroke="#6A798A"/>
<text fill="#CECCCC" xml:space="preserve" style="white-space: pre" font-family="Inter" font-size="7" font-weight="600" letter-spacing="0.04em"><tspan x="143.118" y="303.095">Ahhh, ok. That makes sense. Thank you!</tspan></text>
<circle cx="122.03" cy="279.625" r="7.5" fill="#452117"/>
<text fill="#CECCCC" xml:space="preserve" style="white-space: pre" font-family="Inter" font-size="7" font-weight="bold" letter-spacing="0.08em"><tspan x="117.207" y="282.17">JD</tspan></text>
<text fill="#56667A" xml:space="preserve" style="white-space: pre" font-family="Inter" font-size="7" font-weight="bold" letter-spacing="0.04em"><tspan x="132.873" y="282.17">John Doe</tspan></text>
<g clip-path="url(#clip2_1_4)">
<text fill="black" xml:space="preserve" style="white-space: pre" font-family="Inter" font-size="9" font-weight="300" letter-spacing="0em"><tspan x="305.756" y="297.02">1</tspan></text>
<path d="M298.217 290.524C298.726 290.552 299.245 290.78 299.656 291.202L299.955 291.509L299.969 291.523L299.983 291.508L300.281 291.202C301.104 290.358 302.358 290.291 303.094 291.047C303.831 291.803 303.767 293.092 302.944 293.936L302.647 294.241L299.969 296.99L297.29 294.241L296.993 293.936C296.17 293.092 296.106 291.803 296.843 291.047C297.211 290.669 297.708 290.496 298.217 290.524Z" fill="#452117"/>
<path d="M298.217 290.524L298.218 290.505M298.217 290.524C298.726 290.552 299.245 290.78 299.656 291.202L299.955 291.509L299.969 291.523L299.983 291.508L300.281 291.202C301.104 290.358 302.358 290.291 303.094 291.047C303.831 291.803 303.767 293.092 302.944 293.936L302.647 294.241L299.969 296.99L297.29 294.241L296.993 293.936C296.17 293.092 296.106 291.803 296.843 291.047C297.211 290.669 297.708 290.496 298.217 290.524Z" stroke="#452117"/>
</g>
<g filter="url(#filter0_d_1_4)">
<rect x="93" y="330" width="467" height="40" fill="#CECCCC"/>
</g>
<rect x="246.5" y="334" width="160" height="32" rx="8" fill="#CECCCC"/>
<rect x="247" y="334.5" width="159" height="31" rx="7.5" stroke="#1B0D09" stroke-opacity="0.5"/>
<rect x="412" y="341.5" width="28" height="17" rx="4" fill="#452117"/>
<text fill="#CECCCC" xml:space="preserve" style="white-space: pre" font-family="Inter" font-size="7" letter-spacing="0em"><tspan x="417.51" y="352.55">Send</tspan></text>
<g clip-path="url(#clip3_1_4)">
<path d="M237.134 356.104L236.86 354.33C236.85 354.263 236.868 354.193 236.916 354.138C237.003 354.039 237.155 354.029 237.255 354.115L240.916 357.276L240.943 357.304C241.027 357.405 241.013 357.555 240.911 357.638L237.25 360.641C237.197 360.683 237.127 360.704 237.055 360.691C236.925 360.668 236.839 360.545 236.862 360.416L237.135 358.912C236.817 358.876 236.47 358.797 236.114 358.678C235.182 358.368 234.169 357.777 233.403 356.92C232.628 356.054 232.104 354.918 232.162 353.527C232.183 353.02 232.281 352.48 232.474 351.909C232.497 351.816 232.576 351.743 232.678 351.731C232.809 351.716 232.929 351.809 232.944 351.939C233.155 353.693 233.837 354.71 234.681 355.3C235.435 355.828 236.329 356.025 237.134 356.104Z" fill="#0055BE"/>
<path d="M235.715 339.3H231.008C230.57 339.3 230.14 339.424 229.77 339.657L228.35 340.552C228.139 340.685 228.011 340.916 228.011 341.164V350.528C228.011 351.04 228.43 351.456 228.948 351.456H235.993C236.243 351.456 236.476 351.329 236.61 351.12L237.513 349.717C237.749 349.35 237.874 348.924 237.874 348.489V341.439C237.874 340.26 236.905 339.3 235.715 339.3ZM233.549 345.456H232.955V348.729C232.955 349.18 232.586 349.547 232.129 349.547C231.673 349.547 231.304 349.18 231.304 348.729V345.456H230.71C230.254 345.456 229.884 345.09 229.884 344.638C229.884 344.186 230.254 343.82 230.71 343.82H231.304V343.155C231.304 342.703 231.673 342.337 232.129 342.337C232.586 342.337 232.955 342.703 232.955 343.155V343.82H233.549C234.005 343.82 234.375 344.186 234.375 344.638C234.375 345.09 234.005 345.456 233.549 345.456ZM236.888 348.459C236.888 348.728 236.811 348.992 236.665 349.22L236.395 349.643V341.694C236.395 341.181 235.975 340.766 235.458 340.766H229.816L230.27 340.488C230.497 340.35 230.757 340.277 231.023 340.277H235.715C236.362 340.277 236.888 340.798 236.888 341.439V348.459Z" fill="#0055BE"/>
</g>
<g filter="url(#filter1_d_1_4)">
<rect x="93" width="467" height="32" fill="#CECCCC"/>
</g>
<text fill="black" xml:space="preserve" style="white-space: pre" font-family="Inter" font-size="14" font-weight="200" letter-spacing="0em"><tspan x="289.415" y="21.0909">The Psalms</tspan></text>
<g filter="url(#filter2_d_1_4)">
<rect x="444" width="116" height="370" fill="#CECCCC"/>
</g>
<g clip-path="url(#clip4_1_4)">
<path d="M524.263 16.6551C524.225 16.7055 524.218 16.7729 524.246 16.8295C524.275 16.8861 524.332 16.9218 524.395 16.9218H533.763C533.826 16.9218 533.884 16.8861 533.912 16.8295C533.94 16.7731 533.934 16.7055 533.896 16.6551L533.778 16.5005C533.034 15.5261 532.392 14.6846 532.392 12.3238C532.392 10.1422 531.535 8.90399 529.841 8.63251V8.33676C529.841 7.91699 529.499 7.57556 529.079 7.57556C528.66 7.57556 528.318 7.91688 528.318 8.33676V8.63251C526.624 8.90405 525.767 10.1422 525.767 12.3238C525.767 14.6845 525.125 15.5261 524.381 16.5005L524.263 16.6551ZM528.65 8.33666C528.65 8.10012 528.842 7.9077 529.079 7.9077C529.315 7.9077 529.508 8.10013 529.508 8.33666V8.59251C529.369 8.58115 529.227 8.57523 529.079 8.57523C528.931 8.57523 528.788 8.58115 528.65 8.59251V8.33666ZM526.099 12.3236C526.099 10.0248 527.074 8.90755 529.079 8.90755C531.084 8.90755 532.059 10.025 532.059 12.3236C532.059 14.7053 532.684 15.6122 533.427 16.5891H524.73C525.474 15.612 526.099 14.7052 526.099 12.3236Z" fill="black"/>
<path d="M524.738 10.7582C524.816 10.7582 524.886 10.7028 524.901 10.6234C525.164 9.25953 525.835 8.34476 526.898 7.90399C526.983 7.86875 527.023 7.77157 526.988 7.68689C526.953 7.60221 526.856 7.56186 526.771 7.5971C525.598 8.08335 524.86 9.0803 524.575 10.561C524.558 10.651 524.616 10.7382 524.707 10.7555C524.717 10.7573 524.728 10.7583 524.738 10.7583L524.738 10.7582Z" fill="black"/>
<path d="M533.257 10.6231C533.272 10.7028 533.342 10.7579 533.42 10.7579C533.43 10.7579 533.441 10.7569 533.451 10.7551C533.542 10.7378 533.601 10.6506 533.583 10.5606C533.298 9.08006 532.56 8.08302 531.387 7.59674C531.302 7.56196 531.206 7.60185 531.17 7.68653C531.135 7.77121 531.175 7.86839 531.26 7.90363C532.323 8.3442 532.994 9.25917 533.257 10.623L533.257 10.6231Z" fill="black"/>
<path d="M529.989 17.4818C529.989 17.9822 529.582 18.3894 529.082 18.3894C528.581 18.3894 528.174 17.9822 528.174 17.4818C528.174 17.3899 528.1 17.3156 528.008 17.3156C527.916 17.3156 527.842 17.3899 527.842 17.4818C527.842 18.1653 528.398 18.7216 529.082 18.7216C529.766 18.7216 530.322 18.1653 530.322 17.4818C530.322 17.3899 530.248 17.3156 530.156 17.3156C530.064 17.3156 529.989 17.3899 529.989 17.4818Z" fill="black"/>
</g>
<rect x="451.877" y="9.41553" width="13.2951" height="6.1904" fill="#452117"/>
<path d="M470.846 12.5084L463.143 17.9581L463.143 7.05874L470.846 12.5084Z" fill="#452117"/>
<g clip-path="url(#clip5_1_4)">
<path d="M544.186 9.01862C544.42 9.01862 544.65 9.08305 544.845 9.20377C545.04 9.32449 545.192 9.49607 545.281 9.69682C545.371 9.89757 545.395 10.1185 545.349 10.3316C545.303 10.5447 545.19 10.7405 545.024 10.8941C544.858 11.0477 544.647 11.1524 544.417 11.1948C544.187 11.2372 543.949 11.2154 543.732 11.1323C543.515 11.0491 543.33 10.9083 543.2 10.7276C543.07 10.5469 543 10.3345 543 10.1172C543 9.82587 543.125 9.54643 543.347 9.3404C543.57 9.13436 543.871 9.01862 544.186 9.01862ZM544.186 15.825C544.42 15.825 544.65 15.8894 544.845 16.0102C545.04 16.1309 545.192 16.3025 545.281 16.5032C545.371 16.704 545.395 16.9249 545.349 17.138C545.303 17.3511 545.19 17.5468 545.024 17.7005C544.858 17.8541 544.647 17.9588 544.417 18.0012C544.187 18.0436 543.949 18.0218 543.732 17.9386C543.515 17.8555 543.33 17.7147 543.2 17.534C543.07 17.3533 543 17.1409 543 16.9236C543 16.6323 543.125 16.3528 543.347 16.1468C543.57 15.9408 543.871 15.825 544.186 15.825ZM544.186 12.4214C544.42 12.4214 544.65 12.4859 544.845 12.6066C545.04 12.7273 545.192 12.8989 545.281 13.0997C545.371 13.3004 545.395 13.5213 545.349 13.7344C545.303 13.9475 545.19 14.1433 545.024 14.2969C544.858 14.4506 544.647 14.5552 544.417 14.5976C544.187 14.64 543.949 14.6182 543.732 14.5351C543.515 14.4519 543.33 14.3111 543.2 14.1304C543.07 13.9498 543 13.7374 543 13.5201C543 13.2287 543.125 12.9493 543.347 12.7432C543.57 12.5372 543.871 12.4214 544.186 12.4214Z" fill="black"/>
</g>
<text fill="black" xml:space="preserve" style="white-space: pre" font-family="Inter" font-size="6" font-weight="300" letter-spacing="0.04em"><tspan x="451.877" y="64.6627">A group for those with questions </tspan><tspan x="451.877" y="73.6627">about specific Psalms, and for </tspan><tspan x="451.877" y="82.6627">those who would like to simply </tspan><tspan x="451.877" y="91.6627">share their thoughts on a </tspan><tspan x="451.877" y="100.663">particular Psalm</tspan></text>
<text fill="black" xml:space="preserve" style="white-space: pre" font-family="Inter" font-size="14" font-weight="200" letter-spacing="0em"><tspan x="464.915" y="53.4816">The Psalms</tspan></text>
<text fill="black" xml:space="preserve" style="white-space: pre" font-family="Inter" font-size="8" font-weight="600" letter-spacing="0.04em"><tspan x="482.782" y="137.665">Members</tspan></text>
<rect x="451.877" y="144.926" width="45.8006" height="13.3281" rx="5" fill="#CECCCC"/>
<rect x="452.377" y="145.426" width="44.8006" height="12.3281" rx="4.5" stroke="#1B0D09" stroke-opacity="0.5"/>
<text fill="#539108" xml:space="preserve" style="white-space: pre" font-family="Inter" font-size="7" font-weight="600" letter-spacing="0.04em"><tspan x="457.818" y="154.136">John Doe</tspan></text>
<rect x="501.477" y="144.926" width="51.0464" height="13.3281" rx="5" fill="#CECCCC"/>
<rect x="501.977" y="145.426" width="50.0464" height="12.3281" rx="4.5" stroke="#1B0D09" stroke-opacity="0.5"/>
<text fill="#539108" xml:space="preserve" style="white-space: pre" font-family="Inter" font-size="7" font-weight="600" letter-spacing="0.04em"><tspan x="506.521" y="154.136">Bobb Miller</tspan></text>
<rect x="451.877" y="163.621" width="51.0464" height="13.3281" rx="5" fill="#CECCCC"/>
<rect x="452.377" y="164.121" width="50.0464" height="12.3281" rx="4.5" stroke="#1B0D09" stroke-opacity="0.5"/>
<text fill="#1B0D09" xml:space="preserve" style="white-space: pre" font-family="Inter" font-size="7" font-weight="600" letter-spacing="0.04em"><tspan x="456.62" y="172.831">Anna Smith</tspan></text>
<rect x="506.672" y="163.621" width="36.1513" height="13.3281" rx="5" fill="#CECCCC"/>
<rect x="507.172" y="164.121" width="35.1513" height="12.3281" rx="4.5" stroke="#1B0D09" stroke-opacity="0.5"/>
<text fill="#1B0D09" xml:space="preserve" style="white-space: pre" font-family="Inter" font-size="7" font-weight="600" letter-spacing="0.04em"><tspan x="512.608" y="172.831">Joey K</tspan></text>
<rect x="451.877" y="182.316" width="52.8982" height="13.3281" rx="5" fill="#CECCCC"/>
<rect x="452.377" y="182.816" width="51.8982" height="12.3281" rx="4.5" stroke="#1B0D09" stroke-opacity="0.5"/>
<text fill="#1B0D09" xml:space="preserve" style="white-space: pre" font-family="Inter" font-size="7" font-weight="600" letter-spacing="0.04em"><tspan x="456.743" y="191.526">Martha Mae</tspan></text>
<g filter="url(#filter3_d_1_4)">
<rect width="93" height="370" fill="#CECCCC"/>
</g>
<g filter="url(#filter4_i_1_4)">
<rect x="9" y="8.65076" width="75" height="18" rx="4" fill="#CECCCC"/>
</g>
<text fill="#539108" xml:space="preserve" style="white-space: pre" font-family="Inter" font-size="9" letter-spacing="0em"><tspan x="23.3892" y="20.9235">My Groups</tspan></text>
<g filter="url(#filter5_i_1_4)">
<rect x="8" y="34.3158" width="77" height="32" rx="16" fill="#CECCCC"/>
</g>
<text fill="black" xml:space="preserve" style="white-space: pre" font-family="Inter" font-size="7" letter-spacing="0.04em"><tspan x="26.2539" y="52.8613">The Psalms</tspan></text>
<g filter="url(#filter6_d_1_4)">
<rect x="8" y="73.9809" width="77" height="32" rx="16" fill="#CECCCC"/>
</g>
<text fill="black" xml:space="preserve" style="white-space: pre" font-family="Inter" font-size="7" letter-spacing="0.04em"><tspan x="36.6404" y="92.5263">David</tspan></text>
<g filter="url(#filter7_d_1_4)">
<rect x="8" y="113.646" width="77" height="32" rx="16" fill="#CECCCC"/>
</g>
<text fill="black" xml:space="preserve" style="white-space: pre" font-family="Inter" font-size="7" letter-spacing="0.04em"><tspan x="40.1299" y="132.191">Job</tspan></text>
</g>
<defs>
<filter id="filter0_d_1_4" x="88" y="325" width="477" height="50" filterUnits="userSpaceOnUse" color-interpolation-filters="sRGB">
<feFlood flood-opacity="0" result="BackgroundImageFix"/>
<feColorMatrix in="SourceAlpha" type="matrix" values="0 0 0 0 0 0 0 0 0 0 0 0 0 0 0 0 0 0 127 0" result="hardAlpha"/>
<feMorphology radius="2" operator="dilate" in="SourceAlpha" result="effect1_dropShadow_1_4"/>
<feOffset/>
<feGaussianBlur stdDeviation="1.5"/>
<feComposite in2="hardAlpha" operator="out"/>
<feColorMatrix type="matrix" values="0 0 0 0 0 0 0 0 0 0 0 0 0 0 0 0 0 0 0.4 0"/>
<feBlend mode="normal" in2="BackgroundImageFix" result="effect1_dropShadow_1_4"/>
<feBlend mode="normal" in="SourceGraphic" in2="effect1_dropShadow_1_4" result="shape"/>
</filter>
<filter id="filter1_d_1_4" x="88" y="-5" width="477" height="42" filterUnits="userSpaceOnUse" color-interpolation-filters="sRGB">
<feFlood flood-opacity="0" result="BackgroundImageFix"/>
<feColorMatrix in="SourceAlpha" type="matrix" values="0 0 0 0 0 0 0 0 0 0 0 0 0 0 0 0 0 0 127 0" result="hardAlpha"/>
<feMorphology radius="2" operator="dilate" in="SourceAlpha" result="effect1_dropShadow_1_4"/>
<feOffset/>
<feGaussianBlur stdDeviation="1.5"/>
<feComposite in2="hardAlpha" operator="out"/>
<feColorMatrix type="matrix" values="0 0 0 0 0 0 0 0 0 0 0 0 0 0 0 0 0 0 0.4 0"/>
<feBlend mode="normal" in2="BackgroundImageFix" result="effect1_dropShadow_1_4"/>
<feBlend mode="normal" in="SourceGraphic" in2="effect1_dropShadow_1_4" result="shape"/>
</filter>
<filter id="filter2_d_1_4" x="439" y="-5" width="126" height="380" filterUnits="userSpaceOnUse" color-interpolation-filters="sRGB">
<feFlood flood-opacity="0" result="BackgroundImageFix"/>
<feColorMatrix in="SourceAlpha" type="matrix" values="0 0 0 0 0 0 0 0 0 0 0 0 0 0 0 0 0 0 127 0" result="hardAlpha"/>
<feMorphology radius="2" operator="dilate" in="SourceAlpha" result="effect1_dropShadow_1_4"/>
<feOffset/>
<feGaussianBlur stdDeviation="1.5"/>
<feComposite in2="hardAlpha" operator="out"/>
<feColorMatrix type="matrix" values="0 0 0 0 0 0 0 0 0 0 0 0 0 0 0 0 0 0 0.4 0"/>
<feBlend mode="normal" in2="BackgroundImageFix" result="effect1_dropShadow_1_4"/>
<feBlend mode="normal" in="SourceGraphic" in2="effect1_dropShadow_1_4" result="shape"/>
</filter>
<filter id="filter3_d_1_4" x="-5" y="-5" width="103" height="380" filterUnits="userSpaceOnUse" color-interpolation-filters="sRGB">
<feFlood flood-opacity="0" result="BackgroundImageFix"/>
<feColorMatrix in="SourceAlpha" type="matrix" values="0 0 0 0 0 0 0 0 0 0 0 0 0 0 0 0 0 0 127 0" result="hardAlpha"/>
<feMorphology radius="2" operator="dilate" in="SourceAlpha" result="effect1_dropShadow_1_4"/>
<feOffset/>
<feGaussianBlur stdDeviation="1.5"/>
<feComposite in2="hardAlpha" operator="out"/>
<feColorMatrix type="matrix" values="0 0 0 0 0 0 0 0 0 0 0 0 0 0 0 0 0 0 0.4 0"/>
<feBlend mode="normal" in2="BackgroundImageFix" result="effect1_dropShadow_1_4"/>
<feBlend mode="normal" in="SourceGraphic" in2="effect1_dropShadow_1_4" result="shape"/>
</filter>
<filter id="filter4_i_1_4" x="9" y="8.65076" width="75" height="18" filterUnits="userSpaceOnUse" color-interpolation-filters="sRGB">
<feFlood flood-opacity="0" result="BackgroundImageFix"/>
<feBlend mode="normal" in="SourceGraphic" in2="BackgroundImageFix" result="shape"/>
<feColorMatrix in="SourceAlpha" type="matrix" values="0 0 0 0 0 0 0 0 0 0 0 0 0 0 0 0 0 0 127 0" result="hardAlpha"/>
<feMorphology radius="1" operator="erode" in="SourceAlpha" result="effect1_innerShadow_1_4"/>
<feOffset/>
<feGaussianBlur stdDeviation="1"/>
<feComposite in2="hardAlpha" operator="arithmetic" k2="-1" k3="1"/>
<feColorMatrix type="matrix" values="0 0 0 0 0 0 0 0 0 0 0 0 0 0 0 0 0 0 0.5 0"/>
<feBlend mode="normal" in2="shape" result="effect1_innerShadow_1_4"/>
</filter>
<filter id="filter5_i_1_4" x="8" y="34.3158" width="77" height="32" filterUnits="userSpaceOnUse" color-interpolation-filters="sRGB">
<feFlood flood-opacity="0" result="BackgroundImageFix"/>
<feBlend mode="normal" in="SourceGraphic" in2="BackgroundImageFix" result="shape"/>
<feColorMatrix in="SourceAlpha" type="matrix" values="0 0 0 0 0 0 0 0 0 0 0 0 0 0 0 0 0 0 127 0" result="hardAlpha"/>
<feMorphology radius="1" operator="erode" in="SourceAlpha" result="effect1_innerShadow_1_4"/>
<feOffset/>
<feGaussianBlur stdDeviation="1.5"/>
<feComposite in2="hardAlpha" operator="arithmetic" k2="-1" k3="1"/>
<feColorMatrix type="matrix" values="0 0 0 0 0 0 0 0 0 0 0 0 0 0 0 0 0 0 0.5 0"/>
<feBlend mode="normal" in2="shape" result="effect1_innerShadow_1_4"/>
</filter>
<filter id="filter6_d_1_4" x="4" y="69.9809" width="85" height="40" filterUnits="userSpaceOnUse" color-interpolation-filters="sRGB">
<feFlood flood-opacity="0" result="BackgroundImageFix"/>
<feColorMatrix in="SourceAlpha" type="matrix" values="0 0 0 0 0 0 0 0 0 0 0 0 0 0 0 0 0 0 127 0" result="hardAlpha"/>
<feMorphology radius="1" operator="dilate" in="SourceAlpha" result="effect1_dropShadow_1_4"/>
<feOffset/>
<feGaussianBlur stdDeviation="1.5"/>
<feComposite in2="hardAlpha" operator="out"/>
<feColorMatrix type="matrix" values="0 0 0 0 0 0 0 0 0 0 0 0 0 0 0 0 0 0 0.5 0"/>
<feBlend mode="normal" in2="BackgroundImageFix" result="effect1_dropShadow_1_4"/>
<feBlend mode="normal" in="SourceGraphic" in2="effect1_dropShadow_1_4" result="shape"/>
</filter>
<filter id="filter7_d_1_4" x="4" y="109.646" width="85" height="40" filterUnits="userSpaceOnUse" color-interpolation-filters="sRGB">
<feFlood flood-opacity="0" result="BackgroundImageFix"/>
<feColorMatrix in="SourceAlpha" type="matrix" values="0 0 0 0 0 0 0 0 0 0 0 0 0 0 0 0 0 0 127 0" result="hardAlpha"/>
<feMorphology radius="1" operator="dilate" in="SourceAlpha" result="effect1_dropShadow_1_4"/>
<feOffset/>
<feGaussianBlur stdDeviation="1.5"/>
<feComposite in2="hardAlpha" operator="out"/>
<feColorMatrix type="matrix" values="0 0 0 0 0 0 0 0 0 0 0 0 0 0 0 0 0 0 0.5 0"/>
<feBlend mode="normal" in2="BackgroundImageFix" result="effect1_dropShadow_1_4"/>
<feBlend mode="normal" in="SourceGraphic" in2="effect1_dropShadow_1_4" result="shape"/>
</filter>
<clipPath id="clip0_1_4">
<rect width="560" height="370" rx="20" fill="white"/>
</clipPath>
<clipPath id="clip1_1_4">
<rect width="9" height="8.18182" fill="white" transform="translate(398.088 60)"/>
</clipPath>
<clipPath id="clip2_1_4">
<rect width="17" height="15" fill="white" transform="translate(295 288)"/>
</clipPath>
<clipPath id="clip3_1_4">
<rect width="13" height="21.4" fill="white" transform="translate(228 339.3)"/>
</clipPath>
<clipPath id="clip4_1_4">
<rect width="12" height="12" fill="white" transform="translate(523 6.80118)"/>
</clipPath>
<clipPath id="clip5_1_4">
<rect width="2.36842" height="9" fill="white" transform="translate(543 9.01862)"/>
</clipPath>
</defs>
</svg>
